Coordinates
version=1
nRows=37
nColumns=38
inDegrees=no

Units are S.I. units (second, meters, Newtons, ...)
If the header above contains a line with 'inDegrees', this indicates whether rotational values are in degrees (yes) or radians (no).

endheader
time	pelvis_tilt	pelvis_list	pelvis_rotation	pelvis_tx	pelvis_ty	pelvis_tz	hip_flexion_r	hip_adduction_r	hip_rotation_r	knee_angle_r	ankle_angle_r	subtalar_angle_r	mtp_angle_r	hip_flexion_l	hip_adduction_l	hip_rotation_l	knee_angle_l	ankle_angle_l	subtalar_angle_l	mtp_angle_l	lumbar_extension	lumbar_bending	lumbar_rotation	arm_flex_r	arm_add_r	arm_rot_r	elbow_flex_r	pro_sup_r	wrist_flex_r	wrist_dev_r	arm_flex_l	arm_add_l	arm_rot_l	elbow_flex_l	pro_sup_l	wrist_flex_l	wrist_dev_l
0.68	-2.886	1.44796	-1.6817	0.506098	0.0666773	0.933159	0.37209	-0.155479	-0.344492	0.293261	0.108524	0	0	-0.320057	0.0616777	-0.10099	0.0519015	0.235976	0	0	-0.275268	-0.058743	-0.210285	-0.208568	-0.168827	0.152151	0.643465	0.492874	0	0	0.225756	-0.489653	0.292799	0.818513	1.31277	0	0
0.69	-2.86357	1.45047	-1.70753	0.506552	0.0754299	0.931298	0.370721	-0.146669	-0.329814	0.245472	0.107885	0	0	-0.321115	0.0621084	-0.110998	0.0653721	0.248349	0	0	-0.274597	-0.0613215	-0.206194	-0.204246	-0.169116	0.155223	0.646383	0.490756	0	0	0.236902	-0.490963	0.296263	0.819218	1.31672	0	0
0.7	-2.83889	1.45356	-1.73447	0.506939	0.0843255	0.929359	0.369553	-0.139332	-0.316914	0.201655	0.104364	0	0	-0.319281	0.0616059	-0.123191	0.0837725	0.263463	0	0	-0.273031	-0.063709	-0.203489	-0.200498	-0.169416	0.157976	0.649178	0.488979	0	0	0.246599	-0.492136	0.299225	0.819912	1.32011	0	0
0.71	-2.81693	1.45665	-1.75747	0.507284	0.0935239	0.92744	0.367558	-0.132827	-0.307109	0.162974	0.0988968	0	0	-0.316047	0.0595678	-0.13707	0.106049	0.280493	0	0	-0.270907	-0.0653342	-0.202125	-0.197714	-0.16983	0.160462	0.651752	0.487568	0	0	0.254604	-0.493046	0.301902	0.819848	1.32309	0	0
0.72	-2.79923	1.45961	-1.77481	0.507581	0.103073	0.92556	0.364708	-0.127199	-0.300178	0.130394	0.0924973	0	0	-0.312334	0.0559089	-0.151289	0.130901	0.298457	0	0	-0.268264	-0.0660416	-0.202201	-0.196091	-0.170224	0.162453	0.65407	0.486243	0	0	0.260765	-0.493747	0.304217	0.819543	1.3255	0	0
0.73	-2.79105	1.46216	-1.78123	0.507837	0.112949	0.923787	0.36126	-0.121904	-0.297873	0.105875	0.0859623	0	0	-0.309344	0.0502765	-0.164693	0.156535	0.315904	0	0	-0.265629	-0.0653693	-0.203365	-0.195738	-0.170553	0.163622	0.656462	0.484859	0	0	0.265522	-0.49407	0.306626	0.818402	1.32785	0	0
0.74	-2.79188	1.46392	-1.7774	0.507957	0.123091	0.922174	0.357103	-0.11725	-0.299906	0.0895718	0.0800143	0	0	-0.30792	0.0432479	-0.176178	0.181654	0.331452	0	0	-0.263674	-0.0632851	-0.205621	-0.196333	-0.171003	0.163791	0.659252	0.48361	0	0	0.269031	-0.49369	0.308673	0.81654	1.32995	0	0
0.75	-2.79742	1.46466	-1.76792	0.507937	0.133487	0.920744	0.352713	-0.113797	-0.305994	0.0820756	0.0760957	0	0	-0.308708	0.0357774	-0.185165	0.204962	0.344316	0	0	-0.262686	-0.0602783	-0.209034	-0.197578	-0.171671	0.162964	0.662654	0.482551	0	0	0.270804	-0.492869	0.309926	0.814738	1.33156	0	0
0.76	-2.80859	1.46605	-1.75191	0.507896	0.144055	0.919319	0.35101	-0.111101	-0.318097	0.0856354	0.0753605	0	0	-0.306702	0.0259355	-0.198484	0.234151	0.359669	0	0	-0.261087	-0.0561152	-0.213196	-0.19962	-0.17133	0.156789	0.665829	0.493269	0	0	0.271266	-0.492289	0.313265	0.813507	1.31978	0	0
0.77	-2.80875	1.46537	-1.74771	0.507793	0.155002	0.918214	0.348665	-0.110836	-0.330551	0.0983181	0.0774065	0	0	-0.314434	0.0209078	-0.198096	0.245596	0.362161	0	0	-0.260771	-0.0533988	-0.217189	-0.202201	-0.172239	0.15501	0.669978	0.490666	0	0	0.269787	-0.490153	0.311516	0.811098	1.32419	0	0
0.78	-2.80727	1.46482	-1.74513	0.507704	0.166204	0.917154	0.347862	-0.111795	-0.344611	0.12035	0.081973	0	0	-0.321728	0.0154105	-0.199923	0.258406	0.364839	0	0	-0.25991	-0.0506944	-0.221344	-0.205614	-0.173068	0.152202	0.674991	0.489399	0	0	0.266877	-0.487875	0.310052	0.808156	1.32737	0	0
0.79	-2.80258	1.4645	-1.74579	0.507666	0.177674	0.916157	0.346905	-0.113301	-0.357014	0.145781	0.0854888	0	0	-0.328839	0.00973294	-0.202606	0.271484	0.366528	0	0	-0.258347	-0.0482572	-0.225885	-0.209449	-0.173881	0.149444	0.680079	0.489191	0	0	0.26199	-0.485763	0.308601	0.805267	1.3298	0	0
0.8	-2.79623	1.46448	-1.74777	0.507735	0.189422	0.915234	0.345115	-0.114507	-0.366856	0.169871	0.0880933	0	0	-0.335411	0.00336436	-0.205235	0.285439	0.366741	0	0	-0.256009	-0.046064	-0.231056	-0.213343	-0.174424	0.147383	0.684264	0.489279	0	0	0.255247	-0.483968	0.306925	0.802391	1.33161	0	0
0.81	-2.78883	1.46504	-1.7504	0.507828	0.201288	0.914415	0.343022	-0.115036	-0.373855	0.190038	0.0886389	0	0	-0.340268	-0.00368708	-0.207184	0.301331	0.365635	0	0	-0.252935	-0.0437347	-0.236869	-0.216787	-0.175059	0.146509	0.687275	0.489523	0	0	0.247248	-0.482129	0.305173	0.798873	1.33302	0	0
0.82	-2.79085	1.4665	-1.74412	0.508101	0.21328	0.913747	0.340264	-0.112514	-0.376049	0.203183	0.0826309	0	0	-0.342897	-0.0126933	-0.210596	0.320074	0.363649	0	0	-0.248968	-0.0403081	-0.242087	-0.219738	-0.175955	0.147093	0.688944	0.490279	0	0	0.238268	-0.479933	0.303553	0.794167	1.33449	0	0
0.83	-2.80545	1.46874	-1.72587	0.508559	0.225334	0.913258	0.336615	-0.106786	-0.375047	0.209715	0.0654791	0	0	-0.342778	-0.0239476	-0.215317	0.342806	0.360293	0	0	-0.244378	-0.0354813	-0.246318	-0.222301	-0.177095	0.148322	0.689667	0.491638	0	0	0.228716	-0.477022	0.301849	0.787999	1.33632	0	0
0.84	-2.83306	1.47144	-1.69511	0.509201	0.237502	0.91293	0.331614	-0.0987851	-0.373533	0.211912	0.0401288	0	0	-0.339894	-0.0375033	-0.220845	0.370218	0.355173	0	0	-0.239358	-0.029376	-0.249781	-0.224698	-0.178386	0.149765	0.689759	0.492587	0	0	0.218364	-0.473513	0.29929	0.781071	1.33865	0	0
0.85	-2.88337	1.4756	-1.64164	0.510085	0.249771	0.912597	0.32689	-0.0882905	-0.373274	0.213368	0.0137126	0	0	-0.330435	-0.0558924	-0.230378	0.408563	0.350618	0	0	-0.232632	-0.0212462	-0.252443	-0.227191	-0.178755	0.148007	0.687873	0.505382	0	0	0.207639	-0.470589	0.301321	0.774249	1.32082	0	0
0.86	-2.923	1.47693	-1.5996	0.510938	0.262197	0.912744	0.321259	-0.0813997	-0.376219	0.221732	-0.00368506	0	0	-0.324691	-0.0702816	-0.229848	0.441458	0.335855	0	0	-0.228491	-0.0146639	-0.254608	-0.229564	-0.180219	0.15002	0.686898	0.50006	0	0	0.196123	-0.466216	0.297408	0.766223	1.32989	0	0
0.87	-2.98126	1.47783	-1.53858	0.511776	0.274633	0.913095	0.317347	-0.0745277	-0.380307	0.236858	-0.0148348	0	0	-0.314138	-0.0876559	-0.22899	0.483136	0.31783	0	0	-0.224691	-0.00610903	-0.256355	-0.232175	-0.182152	0.151703	0.685909	0.495203	0	0	0.184744	-0.461115	0.294012	0.757292	1.33841	0	0
0.88	-3.04883	1.47802	-1.46866	0.512586	0.287043	0.913667	0.314808	-0.0677044	-0.381662	0.257707	-0.0174946	0	0	-0.299871	-0.106035	-0.226146	0.530277	0.293527	0	0	-0.221444	0.00352566	-0.257134	-0.234937	-0.184533	0.152915	0.685095	0.490382	0	0	0.173451	-0.455054	0.290357	0.747677	1.34674	0	0
0.89	-3.1261	1.4783	-1.39033	0.513512	0.299325	0.91433	0.313528	-0.0595438	-0.379527	0.280441	-0.01452	0	0	-0.280993	-0.125085	-0.221529	0.582036	0.261979	0	0	-0.217872	0.0138373	-0.25597	-0.237611	-0.18731	0.154186	0.684215	0.48499	0	0	0.162471	-0.448155	0.286492	0.737813	1.3548	0	0
0.9	3.06712	1.47976	-1.30117	0.514672	0.311435	0.914893	0.314086	-0.0495883	-0.37512	0.301705	-0.0102624	0	0	-0.256355	-0.144649	-0.215415	0.637884	0.223013	0	0	-0.212586	0.0244989	-0.252805	-0.239961	-0.190653	0.15702	0.683071	0.477388	0	0	0.151067	-0.44076	0.281752	0.728326	1.36396	0	0
0.91	2.95264	1.48349	-1.18878	0.516073	0.323355	0.915143	0.317673	-0.0379746	-0.370912	0.320188	-0.00586894	0	0	-0.223954	-0.165278	-0.207763	0.698115	0.175705	0	0	-0.203376	0.0355163	-0.248597	-0.242104	-0.195336	0.165535	0.682107	0.459465	0	0	0.138796	-0.432542	0.274613	0.717686	1.38189	0	0
0.92	2.83283	1.48714	-1.0723	0.517582	0.335119	0.915299	0.320215	-0.0261749	-0.366813	0.33414	-0.000168979	0	0	-0.188994	-0.18354	-0.196451	0.757612	0.122944	0	0	-0.19321	0.0453683	-0.243713	-0.244116	-0.202682	0.184223	0.683856	0.417322	0	0	0.125711	-0.424413	0.266698	0.707938	1.40238	0	0
0.93	2.72268	1.48941	-0.96635	0.519163	0.346762	0.915493	0.31903	-0.0142981	-0.362169	0.342517	0.00713879	0	0	-0.15441	-0.198773	-0.182395	0.814688	0.0689297	0	0	-0.184474	0.0536456	-0.237419	-0.246407	-0.2072	0.191709	0.683562	0.410788	0	0	0.11302	-0.418023	0.265227	0.701095	1.40203	0	0
0.94	2.62862	1.49029	-0.877395	0.520817	0.358328	0.915743	0.314168	-0.00229536	-0.356445	0.346541	0.0164	0	0	-0.12106	-0.211319	-0.167561	0.869236	0.0158757	0	0	-0.177477	0.0604678	-0.229811	-0.249132	-0.211041	0.196421	0.683576	0.409964	0	0	0.100527	-0.412282	0.265211	0.695908	1.39838	0	0
0.95	2.52416	1.4916	-0.778113	0.52247	0.369676	0.915795	0.310194	0.00964597	-0.350551	0.349149	0.0266114	0	0	-0.0842177	-0.223242	-0.152859	0.924712	-0.037087	0	0	-0.169011	0.0668593	-0.222826	-0.251632	-0.218979	0.21691	0.68778	0.366703	0	0	0.0872186	-0.405197	0.257587	0.68984	1.42176	0	0
0.96	2.46612	1.49027	-0.725837	0.524107	0.380844	0.916318	0.301523	0.0203165	-0.345165	0.351275	0.0366943	0	0	-0.0530049	-0.232578	-0.139268	0.975765	-0.0803417	0	0	-0.165825	0.0718632	-0.213956	-0.254041	-0.22285	0.222297	0.689024	0.359795	0	0	0.0760109	-0.399728	0.25739	0.68544	1.42409	0	0
0.97	2.44102	1.48707	-0.706359	0.525722	0.391841	0.917267	0.28932	0.0304731	-0.339141	0.353267	0.0478313	0	0	-0.0261948	-0.240457	-0.127989	1.02174	-0.105507	0	0	-0.166502	0.0762384	-0.20432	-0.256221	-0.224476	0.220118	0.688601	0.370651	0	0	0.066183	-0.394655	0.259213	0.681276	1.42135	0	0
0.98	2.4446	1.48336	-0.71531	0.527246	0.402636	0.918599	0.274885	0.0388445	-0.332695	0.355654	0.0597942	0	0	-0.00322164	-0.245519	-0.11802	1.0614	-0.111457	0	0	-0.169844	0.0791435	-0.194781	-0.257879	-0.226771	0.221836	0.689255	0.363991	0	0	0.0574684	-0.389569	0.2605	0.676167	1.42411	0	0
0.99	2.47234	1.47981	-0.748237	0.528685	0.413214	0.920284	0.258415	0.0450508	-0.325984	0.357203	0.0710599	0	0	0.0173362	-0.247759	-0.108598	1.0968	-0.102561	0	0	-0.175247	0.0800047	-0.185108	-0.259016	-0.227659	0.221006	0.688572	0.352827	0	0	0.0501748	-0.384879	0.263418	0.670002	1.4281	0	0
1	2.51826	1.47669	-0.79937	0.530085	0.423577	0.922258	0.240044	0.0491127	-0.319797	0.356684	0.0804889	0	0	0.0368778	-0.247522	-0.0996627	1.13045	-0.082422	0	0	-0.182167	0.078659	-0.175518	-0.259246	-0.226444	0.215807	0.684763	0.35358	0	0	0.0435047	-0.380684	0.266808	0.663979	1.42934	0	0
1.01	2.56426	1.47499	-0.850834	0.531473	0.433753	0.924272	0.221921	0.0514778	-0.314232	0.353947	0.0881779	0	0	0.0577016	-0.245311	-0.0915027	1.162	-0.0536634	0	0	-0.188164	0.0755759	-0.166038	-0.2589	-0.224707	0.21135	0.679435	0.350816	0	0	0.0368717	-0.376824	0.270503	0.65796	1.43125	0	0
1.02	2.61021	1.47457	-0.902601	0.532855	0.443741	0.926303	0.204018	0.0525348	-0.309596	0.348896	0.0944194	0	0	0.079129	-0.24146	-0.085021	1.18818	-0.0231894	0	0	-0.19315	0.0710834	-0.156858	-0.258227	-0.222164	0.205752	0.673032	0.349652	0	0	0.0297474	-0.373291	0.274072	0.652609	1.43263	0	0
1.03	2.65332	1.47531	-0.951705	0.53423	0.453549	0.928298	0.186849	0.0527283	-0.305676	0.342142	0.0999632	0	0	0.10132	-0.236754	-0.080179	1.20824	0.00392856	0	0	-0.196801	0.0656577	-0.147828	-0.257739	-0.217389	0.192728	0.664654	0.364542	0	0	0.0223842	-0.371046	0.282598	0.648809	1.41965	0	0
1.04	2.69433	1.47672	-0.998759	0.535521	0.463229	0.930252	0.169996	0.0525158	-0.302131	0.333974	0.105051	0	0	0.123683	-0.231634	-0.0769109	1.22249	0.0268794	0	0	-0.199341	0.0598886	-0.139876	-0.257349	-0.215285	0.189705	0.65886	0.360498	0	0	0.0135824	-0.367705	0.283642	0.645324	1.42449	0	0
